<svg xmlns="http://www.w3.org/2000/svg" xmlns:xlink="http://www.w3.org/1999/xlink" width="154" zoomAndPan="magnify" viewBox="0 0 115.5 30.000001" height="40" preserveAspectRatio="xMidYMid meet" version="1.0"><defs><g/><clipPath id="2ff5ba8e91"><path d="M 0.492188 7 L 14 7 L 14 23 L 0.492188 23 Z M 0.492188 7 " clip-rule="nonzero"/></clipPath><clipPath id="013f022440"><rect x="0" width="46" y="0" height="29"/></clipPath><clipPath id="7ae15f0737"><path d="M 1.621094 5.65625 L 27.75 5.65625 L 27.75 23.078125 L 1.621094 23.078125 Z M 1.621094 5.65625 " clip-rule="nonzero"/></clipPath><clipPath id="a6df6222b4"><rect x="0" width="38" y="0" height="9"/></clipPath><clipPath id="abe75ba2bc"><path d="M 69 2 L 113.394531 2 L 113.394531 17 L 69 17 Z M 69 2 " clip-rule="nonzero"/></clipPath><clipPath id="4fc3fd64bb"><rect x="0" width="45" y="0" height="15"/></clipPath></defs><g transform="matrix(1, 0, 0, 1, 29, 0.000000000000005773)"><g clip-path="url(#013f022440)"><g clip-path="url(#2ff5ba8e91)"><g fill="#d9d9d9" fill-opacity="1"><g transform="translate(0.518251, 22.736961)"><g><path d="M 11.40625 -15.40625 C 11.75 -15.40625 12.054688 -15.273438 12.328125 -15.015625 C 12.597656 -14.765625 12.734375 -14.441406 12.734375 -14.046875 C 12.734375 -13.910156 12.710938 -13.769531 12.671875 -13.625 C 12.640625 -13.488281 12.578125 -13.359375 12.484375 -13.234375 L 7.515625 -6.109375 L 7.90625 -7.625 L 7.90625 -1.34375 C 7.90625 -0.957031 7.773438 -0.632812 7.515625 -0.375 C 7.265625 -0.125 6.972656 0 6.640625 0 C 6.273438 0 5.960938 -0.125 5.703125 -0.375 C 5.453125 -0.632812 5.328125 -0.957031 5.328125 -1.34375 L 5.328125 -7.453125 L 5.5 -6.75 L 0.765625 -13.03125 C 0.617188 -13.21875 0.515625 -13.398438 0.453125 -13.578125 C 0.398438 -13.753906 0.375 -13.914062 0.375 -14.0625 C 0.375 -14.457031 0.523438 -14.78125 0.828125 -15.03125 C 1.140625 -15.28125 1.457031 -15.40625 1.78125 -15.40625 C 2.1875 -15.40625 2.539062 -15.195312 2.84375 -14.78125 L 7.046875 -8.984375 L 6.4375 -9.0625 L 10.3125 -14.75 C 10.625 -15.1875 10.988281 -15.40625 11.40625 -15.40625 Z M 11.40625 -15.40625 "/></g></g></g></g><g fill="#d9d9d9" fill-opacity="1"><g transform="translate(13.571069, 22.736961)"><g><path d="M 2.984375 -15.328125 L 10.3125 -15.328125 C 10.695312 -15.328125 11.015625 -15.207031 11.265625 -14.96875 C 11.523438 -14.726562 11.65625 -14.421875 11.65625 -14.046875 C 11.65625 -13.679688 11.523438 -13.382812 11.265625 -13.15625 C 11.015625 -12.925781 10.695312 -12.8125 10.3125 -12.8125 L 4.1875 -12.8125 L 4.375 -13.1875 L 4.375 -8.921875 L 4.203125 -9.09375 L 9.328125 -9.09375 C 9.710938 -9.09375 10.03125 -8.972656 10.28125 -8.734375 C 10.539062 -8.492188 10.671875 -8.179688 10.671875 -7.796875 C 10.671875 -7.429688 10.539062 -7.132812 10.28125 -6.90625 C 10.03125 -6.6875 9.710938 -6.578125 9.328125 -6.578125 L 4.265625 -6.578125 L 4.375 -6.75 L 4.375 -2.328125 L 4.203125 -2.515625 L 10.3125 -2.515625 C 10.695312 -2.515625 11.015625 -2.382812 11.265625 -2.125 C 11.523438 -1.875 11.65625 -1.582031 11.65625 -1.25 C 11.65625 -0.882812 11.523438 -0.582031 11.265625 -0.34375 C 11.015625 -0.113281 10.695312 0 10.3125 0 L 2.984375 0 C 2.597656 0 2.273438 -0.125 2.015625 -0.375 C 1.765625 -0.632812 1.640625 -0.957031 1.640625 -1.34375 L 1.640625 -14 C 1.640625 -14.375 1.765625 -14.6875 2.015625 -14.9375 C 2.273438 -15.195312 2.597656 -15.328125 2.984375 -15.328125 Z M 2.984375 -15.328125 "/></g></g></g><g fill="#d9d9d9" fill-opacity="1"><g transform="translate(26.098273, 22.736961)"><g><path d="M 6.578125 0.21875 C 5.546875 0.21875 4.617188 0.09375 3.796875 -0.15625 C 2.984375 -0.414062 2.207031 -0.867188 1.46875 -1.515625 C 1.28125 -1.671875 1.132812 -1.847656 1.03125 -2.046875 C 0.925781 -2.253906 0.875 -2.460938 0.875 -2.671875 C 0.875 -3.003906 0.992188 -3.296875 1.234375 -3.546875 C 1.472656 -3.804688 1.773438 -3.9375 2.140625 -3.9375 C 2.421875 -3.9375 2.671875 -3.851562 2.890625 -3.6875 C 3.441406 -3.226562 3.988281 -2.878906 4.53125 -2.640625 C 5.082031 -2.410156 5.765625 -2.296875 6.578125 -2.296875 C 7.109375 -2.296875 7.597656 -2.378906 8.046875 -2.546875 C 8.503906 -2.710938 8.875 -2.9375 9.15625 -3.21875 C 9.4375 -3.507812 9.578125 -3.835938 9.578125 -4.203125 C 9.578125 -4.640625 9.441406 -5.007812 9.171875 -5.3125 C 8.910156 -5.625 8.507812 -5.882812 7.96875 -6.09375 C 7.425781 -6.3125 6.742188 -6.476562 5.921875 -6.59375 C 5.128906 -6.707031 4.429688 -6.882812 3.828125 -7.125 C 3.234375 -7.363281 2.734375 -7.671875 2.328125 -8.046875 C 1.929688 -8.421875 1.628906 -8.859375 1.421875 -9.359375 C 1.222656 -9.867188 1.125 -10.4375 1.125 -11.0625 C 1.125 -12.007812 1.363281 -12.816406 1.84375 -13.484375 C 2.332031 -14.160156 2.992188 -14.671875 3.828125 -15.015625 C 4.660156 -15.367188 5.582031 -15.546875 6.59375 -15.546875 C 7.539062 -15.546875 8.421875 -15.40625 9.234375 -15.125 C 10.046875 -14.84375 10.707031 -14.484375 11.21875 -14.046875 C 11.632812 -13.703125 11.84375 -13.3125 11.84375 -12.875 C 11.84375 -12.5625 11.71875 -12.269531 11.46875 -12 C 11.226562 -11.738281 10.941406 -11.609375 10.609375 -11.609375 C 10.390625 -11.609375 10.191406 -11.675781 10.015625 -11.8125 C 9.773438 -12.007812 9.457031 -12.195312 9.0625 -12.375 C 8.675781 -12.5625 8.257812 -12.71875 7.8125 -12.84375 C 7.375 -12.96875 6.96875 -13.03125 6.59375 -13.03125 C 5.96875 -13.03125 5.4375 -12.945312 5 -12.78125 C 4.570312 -12.625 4.25 -12.40625 4.03125 -12.125 C 3.8125 -11.851562 3.703125 -11.535156 3.703125 -11.171875 C 3.703125 -10.734375 3.828125 -10.367188 4.078125 -10.078125 C 4.335938 -9.796875 4.707031 -9.570312 5.1875 -9.40625 C 5.675781 -9.238281 6.253906 -9.085938 6.921875 -8.953125 C 7.796875 -8.796875 8.566406 -8.609375 9.234375 -8.390625 C 9.898438 -8.171875 10.453125 -7.890625 10.890625 -7.546875 C 11.328125 -7.203125 11.65625 -6.769531 11.875 -6.25 C 12.09375 -5.726562 12.203125 -5.097656 12.203125 -4.359375 C 12.203125 -3.410156 11.9375 -2.59375 11.40625 -1.90625 C 10.882812 -1.21875 10.195312 -0.691406 9.34375 -0.328125 C 8.488281 0.0351562 7.566406 0.21875 6.578125 0.21875 Z M 6.578125 0.21875 "/></g></g></g><g fill="#d9d9d9" fill-opacity="1"><g transform="translate(39.181844, 22.736961)"><g/></g></g></g></g><g clip-path="url(#7ae15f0737)"><path fill="#5e17eb" d="M 10.789062 10.78125 C 10.789062 10.609375 10.8125 10.285156 11.222656 10.042969 C 11.589844 9.832031 12.324219 9.660156 12.777344 9.914062 L 19.386719 13.507812 C 19.726562 13.703125 20.089844 14.113281 20.085938 14.558594 C 20.082031 14.847656 19.929688 15.105469 19.667969 15.246094 L 19.652344 15.257812 L 12.761719 18.667969 C 12.609375 18.746094 12.429688 18.777344 12.230469 18.777344 C 11.84375 18.777344 11.445312 18.652344 11.207031 18.511719 C 10.808594 18.273438 10.789062 17.953125 10.789062 17.785156 Z M 7.03125 23.367188 L 22.417969 23.367188 C 25.410156 23.367188 27.964844 20.765625 27.964844 17.773438 L 27.964844 10.613281 C 27.964844 7.621094 25.410156 5.664062 22.417969 5.664062 L 7.03125 5.664062 C 4.039062 5.664062 1.621094 7.621094 1.621094 10.613281 L 1.621094 17.773438 C 1.621094 20.765625 4.039062 23.367188 7.03125 23.367188 " fill-opacity="1" fill-rule="nonzero"/></g><g transform="matrix(1, 0, 0, 1, 70, 15)"><g clip-path="url(#a6df6222b4)"><g fill="#d9d9d9" fill-opacity="1"><g transform="translate(0.764702, 6.775208)"><g><path d="M 1.90625 0.0625 C 1.613281 0.0625 1.347656 0.0234375 1.109375 -0.046875 C 0.867188 -0.117188 0.640625 -0.25 0.421875 -0.4375 C 0.367188 -0.488281 0.328125 -0.539062 0.296875 -0.59375 C 0.265625 -0.65625 0.25 -0.71875 0.25 -0.78125 C 0.25 -0.875 0.285156 -0.957031 0.359375 -1.03125 C 0.429688 -1.101562 0.519531 -1.140625 0.625 -1.140625 C 0.707031 -1.140625 0.78125 -1.117188 0.84375 -1.078125 C 1 -0.941406 1.15625 -0.835938 1.3125 -0.765625 C 1.476562 -0.703125 1.675781 -0.671875 1.90625 -0.671875 C 2.0625 -0.671875 2.207031 -0.691406 2.34375 -0.734375 C 2.476562 -0.785156 2.582031 -0.851562 2.65625 -0.9375 C 2.738281 -1.019531 2.78125 -1.113281 2.78125 -1.21875 C 2.78125 -1.351562 2.742188 -1.460938 2.671875 -1.546875 C 2.597656 -1.640625 2.476562 -1.71875 2.3125 -1.78125 C 2.15625 -1.84375 1.957031 -1.890625 1.71875 -1.921875 C 1.488281 -1.953125 1.285156 -2.003906 1.109375 -2.078125 C 0.941406 -2.148438 0.796875 -2.238281 0.671875 -2.34375 C 0.554688 -2.445312 0.46875 -2.570312 0.40625 -2.71875 C 0.351562 -2.863281 0.328125 -3.03125 0.328125 -3.21875 C 0.328125 -3.5 0.394531 -3.734375 0.53125 -3.921875 C 0.675781 -4.117188 0.867188 -4.269531 1.109375 -4.375 C 1.359375 -4.476562 1.628906 -4.53125 1.921875 -4.53125 C 2.191406 -4.53125 2.445312 -4.488281 2.6875 -4.40625 C 2.925781 -4.320312 3.117188 -4.21875 3.265625 -4.09375 C 3.390625 -3.988281 3.453125 -3.875 3.453125 -3.75 C 3.453125 -3.65625 3.414062 -3.566406 3.34375 -3.484375 C 3.269531 -3.410156 3.179688 -3.375 3.078125 -3.375 C 3.015625 -3.375 2.957031 -3.394531 2.90625 -3.4375 C 2.84375 -3.5 2.753906 -3.554688 2.640625 -3.609375 C 2.523438 -3.660156 2.398438 -3.703125 2.265625 -3.734375 C 2.140625 -3.773438 2.023438 -3.796875 1.921875 -3.796875 C 1.734375 -3.796875 1.578125 -3.769531 1.453125 -3.71875 C 1.328125 -3.675781 1.234375 -3.613281 1.171875 -3.53125 C 1.109375 -3.445312 1.078125 -3.351562 1.078125 -3.25 C 1.078125 -3.125 1.113281 -3.019531 1.1875 -2.9375 C 1.257812 -2.851562 1.363281 -2.785156 1.5 -2.734375 C 1.644531 -2.691406 1.816406 -2.648438 2.015625 -2.609375 C 2.265625 -2.554688 2.488281 -2.5 2.6875 -2.4375 C 2.882812 -2.375 3.046875 -2.289062 3.171875 -2.1875 C 3.296875 -2.09375 3.390625 -1.96875 3.453125 -1.8125 C 3.515625 -1.664062 3.546875 -1.484375 3.546875 -1.265625 C 3.546875 -0.992188 3.46875 -0.753906 3.3125 -0.546875 C 3.164062 -0.347656 2.96875 -0.195312 2.71875 -0.09375 C 2.46875 0.0078125 2.195312 0.0625 1.90625 0.0625 Z M 1.90625 0.0625 "/></g></g></g><g fill="#d9d9d9" fill-opacity="1"><g transform="translate(4.579385, 6.775208)"><g><path d="M 2.9375 -3.234375 C 2.988281 -3.234375 3.03125 -3.210938 3.0625 -3.171875 C 3.101562 -3.140625 3.125 -3.097656 3.125 -3.046875 L 3.125 -1.25 C 3.125 -0.832031 3.003906 -0.507812 2.765625 -0.28125 C 2.535156 -0.0625 2.21875 0.046875 1.8125 0.046875 C 1.414062 0.046875 1.097656 -0.0625 0.859375 -0.28125 C 0.617188 -0.507812 0.5 -0.832031 0.5 -1.25 L 0.5 -3.046875 C 0.5 -3.097656 0.515625 -3.140625 0.546875 -3.171875 C 0.585938 -3.210938 0.632812 -3.234375 0.6875 -3.234375 C 0.75 -3.234375 0.796875 -3.210938 0.828125 -3.171875 C 0.867188 -3.140625 0.890625 -3.097656 0.890625 -3.046875 L 0.890625 -1.25 C 0.890625 -0.945312 0.96875 -0.710938 1.125 -0.546875 C 1.289062 -0.390625 1.519531 -0.3125 1.8125 -0.3125 C 2.101562 -0.3125 2.332031 -0.390625 2.5 -0.546875 C 2.664062 -0.710938 2.75 -0.945312 2.75 -1.25 L 2.75 -3.046875 C 2.75 -3.097656 2.765625 -3.140625 2.796875 -3.171875 C 2.828125 -3.210938 2.875 -3.234375 2.9375 -3.234375 Z M 2.9375 -3.234375 "/></g></g></g><g fill="#d9d9d9" fill-opacity="1"><g transform="translate(8.21119, 6.775208)"><g><path d="M 1.96875 -3.28125 C 2.226562 -3.28125 2.453125 -3.210938 2.640625 -3.078125 C 2.828125 -2.941406 2.957031 -2.734375 3.03125 -2.453125 L 2.9375 -2.4375 L 2.984375 -2.546875 C 3.035156 -2.671875 3.125 -2.789062 3.25 -2.90625 C 3.382812 -3.019531 3.535156 -3.109375 3.703125 -3.171875 C 3.867188 -3.242188 4.035156 -3.28125 4.203125 -3.28125 C 4.472656 -3.28125 4.6875 -3.222656 4.84375 -3.109375 C 5.007812 -2.992188 5.128906 -2.835938 5.203125 -2.640625 C 5.273438 -2.453125 5.3125 -2.238281 5.3125 -2 L 5.3125 -0.1875 C 5.3125 -0.132812 5.289062 -0.0859375 5.25 -0.046875 C 5.21875 -0.015625 5.175781 0 5.125 0 C 5.070312 0 5.023438 -0.015625 4.984375 -0.046875 C 4.953125 -0.0859375 4.9375 -0.132812 4.9375 -0.1875 L 4.9375 -1.96875 C 4.9375 -2.144531 4.90625 -2.304688 4.84375 -2.453125 C 4.789062 -2.597656 4.703125 -2.710938 4.578125 -2.796875 C 4.460938 -2.878906 4.304688 -2.921875 4.109375 -2.921875 C 3.929688 -2.921875 3.765625 -2.878906 3.609375 -2.796875 C 3.453125 -2.710938 3.320312 -2.597656 3.21875 -2.453125 C 3.125 -2.304688 3.078125 -2.144531 3.078125 -1.96875 L 3.078125 -0.1875 C 3.078125 -0.132812 3.054688 -0.0859375 3.015625 -0.046875 C 2.984375 -0.015625 2.9375 0 2.875 0 C 2.820312 0 2.773438 -0.015625 2.734375 -0.046875 C 2.703125 -0.0859375 2.6875 -0.132812 2.6875 -0.1875 L 2.6875 -2 C 2.6875 -2.164062 2.660156 -2.316406 2.609375 -2.453125 C 2.554688 -2.597656 2.472656 -2.710938 2.359375 -2.796875 C 2.242188 -2.878906 2.09375 -2.921875 1.90625 -2.921875 C 1.726562 -2.921875 1.5625 -2.878906 1.40625 -2.796875 C 1.25 -2.710938 1.125 -2.597656 1.03125 -2.453125 C 0.9375 -2.316406 0.890625 -2.164062 0.890625 -2 L 0.890625 -0.1875 C 0.890625 -0.132812 0.867188 -0.0859375 0.828125 -0.046875 C 0.785156 -0.015625 0.738281 0 0.6875 0 C 0.632812 0 0.585938 -0.015625 0.546875 -0.046875 C 0.515625 -0.0859375 0.5 -0.132812 0.5 -0.1875 L 0.5 -3.046875 C 0.5 -3.097656 0.515625 -3.140625 0.546875 -3.171875 C 0.585938 -3.210938 0.632812 -3.234375 0.6875 -3.234375 C 0.75 -3.234375 0.796875 -3.210938 0.828125 -3.171875 C 0.867188 -3.140625 0.890625 -3.097656 0.890625 -3.046875 L 0.890625 -2.453125 L 0.71875 -2.21875 C 0.726562 -2.34375 0.765625 -2.46875 0.828125 -2.59375 C 0.898438 -2.726562 0.992188 -2.84375 1.109375 -2.9375 C 1.222656 -3.039062 1.351562 -3.125 1.5 -3.1875 C 1.65625 -3.25 1.8125 -3.28125 1.96875 -3.28125 Z M 1.96875 -3.28125 "/></g></g></g><g fill="#d9d9d9" fill-opacity="1"><g transform="translate(14.032288, 6.775208)"><g><path d="M 1.96875 -3.28125 C 2.226562 -3.28125 2.453125 -3.210938 2.640625 -3.078125 C 2.828125 -2.941406 2.957031 -2.734375 3.03125 -2.453125 L 2.9375 -2.4375 L 2.984375 -2.546875 C 3.035156 -2.671875 3.125 -2.789062 3.25 -2.90625 C 3.382812 -3.019531 3.535156 -3.109375 3.703125 -3.171875 C 3.867188 -3.242188 4.035156 -3.28125 4.203125 -3.28125 C 4.472656 -3.28125 4.6875 -3.222656 4.84375 -3.109375 C 5.007812 -2.992188 5.128906 -2.835938 5.203125 -2.640625 C 5.273438 -2.453125 5.3125 -2.238281 5.3125 -2 L 5.3125 -0.1875 C 5.3125 -0.132812 5.289062 -0.0859375 5.25 -0.046875 C 5.21875 -0.015625 5.175781 0 5.125 0 C 5.070312 0 5.023438 -0.015625 4.984375 -0.046875 C 4.953125 -0.0859375 4.9375 -0.132812 4.9375 -0.1875 L 4.9375 -1.96875 C 4.9375 -2.144531 4.90625 -2.304688 4.84375 -2.453125 C 4.789062 -2.597656 4.703125 -2.710938 4.578125 -2.796875 C 4.460938 -2.878906 4.304688 -2.921875 4.109375 -2.921875 C 3.929688 -2.921875 3.765625 -2.878906 3.609375 -2.796875 C 3.453125 -2.710938 3.320312 -2.597656 3.21875 -2.453125 C 3.125 -2.304688 3.078125 -2.144531 3.078125 -1.96875 L 3.078125 -0.1875 C 3.078125 -0.132812 3.054688 -0.0859375 3.015625 -0.046875 C 2.984375 -0.015625 2.9375 0 2.875 0 C 2.820312 0 2.773438 -0.015625 2.734375 -0.046875 C 2.703125 -0.0859375 2.6875 -0.132812 2.6875 -0.1875 L 2.6875 -2 C 2.6875 -2.164062 2.660156 -2.316406 2.609375 -2.453125 C 2.554688 -2.597656 2.472656 -2.710938 2.359375 -2.796875 C 2.242188 -2.878906 2.09375 -2.921875 1.90625 -2.921875 C 1.726562 -2.921875 1.5625 -2.878906 1.40625 -2.796875 C 1.25 -2.710938 1.125 -2.597656 1.03125 -2.453125 C 0.9375 -2.316406 0.890625 -2.164062 0.890625 -2 L 0.890625 -0.1875 C 0.890625 -0.132812 0.867188 -0.0859375 0.828125 -0.046875 C 0.785156 -0.015625 0.738281 0 0.6875 0 C 0.632812 0 0.585938 -0.015625 0.546875 -0.046875 C 0.515625 -0.0859375 0.5 -0.132812 0.5 -0.1875 L 0.5 -3.046875 C 0.5 -3.097656 0.515625 -3.140625 0.546875 -3.171875 C 0.585938 -3.210938 0.632812 -3.234375 0.6875 -3.234375 C 0.75 -3.234375 0.796875 -3.210938 0.828125 -3.171875 C 0.867188 -3.140625 0.890625 -3.097656 0.890625 -3.046875 L 0.890625 -2.453125 L 0.71875 -2.21875 C 0.726562 -2.34375 0.765625 -2.46875 0.828125 -2.59375 C 0.898438 -2.726562 0.992188 -2.84375 1.109375 -2.9375 C 1.222656 -3.039062 1.351562 -3.125 1.5 -3.1875 C 1.65625 -3.25 1.8125 -3.28125 1.96875 -3.28125 Z M 1.96875 -3.28125 "/></g></g></g><g fill="#d9d9d9" fill-opacity="1"><g transform="translate(19.853386, 6.775208)"><g><path d="M 3.171875 -3.25 C 3.222656 -3.25 3.265625 -3.226562 3.296875 -3.1875 C 3.335938 -3.15625 3.359375 -3.113281 3.359375 -3.0625 L 3.359375 -0.1875 C 3.359375 -0.132812 3.335938 -0.0859375 3.296875 -0.046875 C 3.265625 -0.015625 3.222656 0 3.171875 0 C 3.117188 0 3.070312 -0.015625 3.03125 -0.046875 C 3 -0.0859375 2.984375 -0.132812 2.984375 -0.1875 L 2.984375 -0.953125 L 3.09375 -1 C 3.09375 -0.882812 3.054688 -0.765625 2.984375 -0.640625 C 2.921875 -0.515625 2.832031 -0.398438 2.71875 -0.296875 C 2.601562 -0.191406 2.46875 -0.101562 2.3125 -0.03125 C 2.15625 0.03125 1.988281 0.0625 1.8125 0.0625 C 1.53125 0.0625 1.273438 -0.0078125 1.046875 -0.15625 C 0.816406 -0.300781 0.632812 -0.503906 0.5 -0.765625 C 0.375 -1.023438 0.3125 -1.316406 0.3125 -1.640625 C 0.3125 -1.972656 0.375 -2.265625 0.5 -2.515625 C 0.632812 -2.773438 0.816406 -2.972656 1.046875 -3.109375 C 1.273438 -3.253906 1.53125 -3.328125 1.8125 -3.328125 C 1.988281 -3.328125 2.15625 -3.296875 2.3125 -3.234375 C 2.476562 -3.171875 2.617188 -3.082031 2.734375 -2.96875 C 2.859375 -2.863281 2.953125 -2.738281 3.015625 -2.59375 C 3.085938 -2.457031 3.125 -2.3125 3.125 -2.15625 L 2.984375 -2.25 L 2.984375 -3.0625 C 2.984375 -3.113281 3 -3.15625 3.03125 -3.1875 C 3.070312 -3.226562 3.117188 -3.25 3.171875 -3.25 Z M 1.84375 -0.296875 C 2.070312 -0.296875 2.269531 -0.351562 2.4375 -0.46875 C 2.613281 -0.582031 2.753906 -0.742188 2.859375 -0.953125 C 2.960938 -1.160156 3.015625 -1.390625 3.015625 -1.640625 C 3.015625 -1.890625 2.960938 -2.113281 2.859375 -2.3125 C 2.753906 -2.519531 2.613281 -2.679688 2.4375 -2.796875 C 2.269531 -2.921875 2.070312 -2.984375 1.84375 -2.984375 C 1.625 -2.984375 1.425781 -2.925781 1.25 -2.8125 C 1.070312 -2.695312 0.929688 -2.535156 0.828125 -2.328125 C 0.734375 -2.128906 0.6875 -1.898438 0.6875 -1.640625 C 0.6875 -1.390625 0.734375 -1.160156 0.828125 -0.953125 C 0.929688 -0.742188 1.070312 -0.582031 1.25 -0.46875 C 1.425781 -0.351562 1.625 -0.296875 1.84375 -0.296875 Z M 1.84375 -0.296875 "/></g></g></g><g fill="#d9d9d9" fill-opacity="1"><g transform="translate(23.721352, 6.775208)"><g><path d="M 0.6875 0 C 0.632812 0 0.585938 -0.015625 0.546875 -0.046875 C 0.515625 -0.0859375 0.5 -0.132812 0.5 -0.1875 L 0.5 -3.046875 C 0.5 -3.097656 0.515625 -3.140625 0.546875 -3.171875 C 0.585938 -3.210938 0.632812 -3.234375 0.6875 -3.234375 C 0.75 -3.234375 0.796875 -3.210938 0.828125 -3.171875 C 0.867188 -3.140625 0.890625 -3.097656 0.890625 -3.046875 L 0.890625 -2.09375 L 0.796875 -2.078125 C 0.804688 -2.222656 0.84375 -2.367188 0.90625 -2.515625 C 0.96875 -2.660156 1.050781 -2.796875 1.15625 -2.921875 C 1.257812 -3.046875 1.382812 -3.144531 1.53125 -3.21875 C 1.675781 -3.289062 1.84375 -3.328125 2.03125 -3.328125 C 2.101562 -3.328125 2.175781 -3.3125 2.25 -3.28125 C 2.320312 -3.25 2.359375 -3.195312 2.359375 -3.125 C 2.359375 -3.0625 2.335938 -3.015625 2.296875 -2.984375 C 2.265625 -2.953125 2.226562 -2.9375 2.1875 -2.9375 C 2.144531 -2.9375 2.101562 -2.945312 2.0625 -2.96875 C 2.019531 -2.988281 1.960938 -3 1.890625 -3 C 1.765625 -3 1.640625 -2.960938 1.515625 -2.890625 C 1.398438 -2.816406 1.296875 -2.71875 1.203125 -2.59375 C 1.109375 -2.476562 1.03125 -2.347656 0.96875 -2.203125 C 0.914062 -2.054688 0.890625 -1.910156 0.890625 -1.765625 L 0.890625 -0.1875 C 0.890625 -0.132812 0.867188 -0.0859375 0.828125 -0.046875 C 0.785156 -0.015625 0.738281 0 0.6875 0 Z M 0.6875 0 "/></g></g></g><g fill="#d9d9d9" fill-opacity="1"><g transform="translate(26.17872, 6.775208)"><g><path d="M 0.875 -0.1875 C 0.875 -0.132812 0.851562 -0.0859375 0.8125 -0.046875 C 0.78125 -0.015625 0.738281 0 0.6875 0 C 0.625 0 0.570312 -0.015625 0.53125 -0.046875 C 0.5 -0.0859375 0.484375 -0.132812 0.484375 -0.1875 L 0.484375 -3.125 C 0.484375 -3.175781 0.5 -3.21875 0.53125 -3.25 C 0.570312 -3.289062 0.625 -3.3125 0.6875 -3.3125 C 0.738281 -3.3125 0.78125 -3.289062 0.8125 -3.25 C 0.851562 -3.21875 0.875 -3.175781 0.875 -3.125 Z M 0.6875 -3.75 C 0.59375 -3.75 0.519531 -3.769531 0.46875 -3.8125 C 0.425781 -3.851562 0.40625 -3.910156 0.40625 -3.984375 L 0.40625 -4.046875 C 0.40625 -4.117188 0.429688 -4.175781 0.484375 -4.21875 C 0.535156 -4.257812 0.601562 -4.28125 0.6875 -4.28125 C 0.769531 -4.28125 0.832031 -4.257812 0.875 -4.21875 C 0.914062 -4.175781 0.9375 -4.117188 0.9375 -4.046875 L 0.9375 -3.984375 C 0.9375 -3.910156 0.914062 -3.851562 0.875 -3.8125 C 0.832031 -3.769531 0.769531 -3.75 0.6875 -3.75 Z M 0.6875 -3.75 "/></g></g></g><g fill="#d9d9d9" fill-opacity="1"><g transform="translate(27.544639, 6.775208)"><g><path d="M 2.546875 -0.359375 C 2.597656 -0.359375 2.640625 -0.335938 2.671875 -0.296875 C 2.710938 -0.265625 2.734375 -0.222656 2.734375 -0.171875 C 2.734375 -0.128906 2.710938 -0.0859375 2.671875 -0.046875 C 2.640625 -0.015625 2.597656 0 2.546875 0 L 0.46875 0 C 0.414062 0 0.367188 -0.0195312 0.328125 -0.0625 C 0.296875 -0.101562 0.28125 -0.144531 0.28125 -0.1875 C 0.28125 -0.207031 0.285156 -0.226562 0.296875 -0.25 C 0.304688 -0.28125 0.320312 -0.304688 0.34375 -0.328125 L 2.28125 -3 L 2.296875 -2.9375 L 0.625 -2.9375 C 0.570312 -2.9375 0.53125 -2.953125 0.5 -2.984375 C 0.46875 -3.023438 0.453125 -3.070312 0.453125 -3.125 C 0.453125 -3.175781 0.46875 -3.21875 0.5 -3.25 C 0.53125 -3.28125 0.570312 -3.296875 0.625 -3.296875 L 2.59375 -3.296875 C 2.632812 -3.296875 2.671875 -3.273438 2.703125 -3.234375 C 2.742188 -3.203125 2.765625 -3.160156 2.765625 -3.109375 C 2.765625 -3.085938 2.757812 -3.066406 2.75 -3.046875 C 2.738281 -3.023438 2.726562 -3 2.71875 -2.96875 L 0.796875 -0.328125 L 0.71875 -0.359375 Z M 2.546875 -0.359375 "/></g></g></g><g fill="#d9d9d9" fill-opacity="1"><g transform="translate(30.53817, 6.775208)"><g><path d="M 1.96875 0.0625 C 1.644531 0.0625 1.359375 -0.00390625 1.109375 -0.140625 C 0.859375 -0.285156 0.660156 -0.484375 0.515625 -0.734375 C 0.378906 -0.984375 0.3125 -1.273438 0.3125 -1.609375 C 0.3125 -1.972656 0.378906 -2.28125 0.515625 -2.53125 C 0.660156 -2.789062 0.847656 -2.988281 1.078125 -3.125 C 1.304688 -3.257812 1.546875 -3.328125 1.796875 -3.328125 C 1.984375 -3.328125 2.164062 -3.296875 2.34375 -3.234375 C 2.519531 -3.171875 2.675781 -3.070312 2.8125 -2.9375 C 2.957031 -2.8125 3.070312 -2.65625 3.15625 -2.46875 C 3.238281 -2.28125 3.285156 -2.0625 3.296875 -1.8125 C 3.285156 -1.757812 3.257812 -1.710938 3.21875 -1.671875 C 3.1875 -1.640625 3.144531 -1.625 3.09375 -1.625 L 0.53125 -1.625 L 0.453125 -1.96875 L 2.96875 -1.96875 L 2.890625 -1.90625 L 2.890625 -2.03125 C 2.867188 -2.226562 2.800781 -2.394531 2.6875 -2.53125 C 2.582031 -2.675781 2.453125 -2.785156 2.296875 -2.859375 C 2.140625 -2.929688 1.972656 -2.96875 1.796875 -2.96875 C 1.671875 -2.96875 1.539062 -2.941406 1.40625 -2.890625 C 1.28125 -2.835938 1.160156 -2.753906 1.046875 -2.640625 C 0.941406 -2.535156 0.851562 -2.398438 0.78125 -2.234375 C 0.71875 -2.066406 0.6875 -1.867188 0.6875 -1.640625 C 0.6875 -1.390625 0.734375 -1.160156 0.828125 -0.953125 C 0.929688 -0.753906 1.078125 -0.59375 1.265625 -0.46875 C 1.460938 -0.351562 1.695312 -0.296875 1.96875 -0.296875 C 2.113281 -0.296875 2.242188 -0.316406 2.359375 -0.359375 C 2.484375 -0.398438 2.585938 -0.453125 2.671875 -0.515625 C 2.765625 -0.585938 2.84375 -0.664062 2.90625 -0.75 C 2.957031 -0.78125 3.003906 -0.796875 3.046875 -0.796875 C 3.085938 -0.796875 3.125 -0.78125 3.15625 -0.75 C 3.1875 -0.71875 3.203125 -0.679688 3.203125 -0.640625 C 3.203125 -0.585938 3.179688 -0.539062 3.140625 -0.5 C 3.015625 -0.351562 2.847656 -0.222656 2.640625 -0.109375 C 2.441406 0.00390625 2.21875 0.0625 1.96875 0.0625 Z M 1.96875 0.0625 "/></g></g></g><g fill="#d9d9d9" fill-opacity="1"><g transform="translate(34.144442, 6.775208)"><g><path d="M 0.6875 0 C 0.632812 0 0.585938 -0.015625 0.546875 -0.046875 C 0.515625 -0.0859375 0.5 -0.132812 0.5 -0.1875 L 0.5 -3.046875 C 0.5 -3.097656 0.515625 -3.140625 0.546875 -3.171875 C 0.585938 -3.210938 0.632812 -3.234375 0.6875 -3.234375 C 0.75 -3.234375 0.796875 -3.210938 0.828125 -3.171875 C 0.867188 -3.140625 0.890625 -3.097656 0.890625 -3.046875 L 0.890625 -2.09375 L 0.796875 -2.078125 C 0.804688 -2.222656 0.84375 -2.367188 0.90625 -2.515625 C 0.96875 -2.660156 1.050781 -2.796875 1.15625 -2.921875 C 1.257812 -3.046875 1.382812 -3.144531 1.53125 -3.21875 C 1.675781 -3.289062 1.84375 -3.328125 2.03125 -3.328125 C 2.101562 -3.328125 2.175781 -3.3125 2.25 -3.28125 C 2.320312 -3.25 2.359375 -3.195312 2.359375 -3.125 C 2.359375 -3.0625 2.335938 -3.015625 2.296875 -2.984375 C 2.265625 -2.953125 2.226562 -2.9375 2.1875 -2.9375 C 2.144531 -2.9375 2.101562 -2.945312 2.0625 -2.96875 C 2.019531 -2.988281 1.960938 -3 1.890625 -3 C 1.765625 -3 1.640625 -2.960938 1.515625 -2.890625 C 1.398438 -2.816406 1.296875 -2.71875 1.203125 -2.59375 C 1.109375 -2.476562 1.03125 -2.347656 0.96875 -2.203125 C 0.914062 -2.054688 0.890625 -1.910156 0.890625 -1.765625 L 0.890625 -0.1875 C 0.890625 -0.132812 0.867188 -0.0859375 0.828125 -0.046875 C 0.785156 -0.015625 0.738281 0 0.6875 0 Z M 0.6875 0 "/></g></g></g></g></g><g clip-path="url(#abe75ba2bc)"><g transform="matrix(1, 0, 0, 1, 69, 2)"><g clip-path="url(#4fc3fd64bb)"><g fill="#d9d9d9" fill-opacity="1"><g transform="translate(1.344681, 11.561627)"><g><path d="M 5.515625 -7.4375 C 5.671875 -7.4375 5.8125 -7.375 5.9375 -7.25 C 6.070312 -7.125 6.140625 -6.96875 6.140625 -6.78125 C 6.140625 -6.71875 6.128906 -6.648438 6.109375 -6.578125 C 6.097656 -6.515625 6.070312 -6.453125 6.03125 -6.390625 L 3.625 -2.953125 L 3.8125 -3.6875 L 3.8125 -0.640625 C 3.8125 -0.460938 3.75 -0.3125 3.625 -0.1875 C 3.507812 -0.0625 3.367188 0 3.203125 0 C 3.023438 0 2.875 -0.0625 2.75 -0.1875 C 2.632812 -0.3125 2.578125 -0.460938 2.578125 -0.640625 L 2.578125 -3.59375 L 2.65625 -3.265625 L 0.375 -6.296875 C 0.300781 -6.390625 0.25 -6.476562 0.21875 -6.5625 C 0.195312 -6.644531 0.1875 -6.722656 0.1875 -6.796875 C 0.1875 -6.984375 0.257812 -7.132812 0.40625 -7.25 C 0.550781 -7.375 0.703125 -7.4375 0.859375 -7.4375 C 1.054688 -7.4375 1.226562 -7.335938 1.375 -7.140625 L 3.40625 -4.34375 L 3.109375 -4.375 L 4.984375 -7.125 C 5.128906 -7.332031 5.304688 -7.4375 5.515625 -7.4375 Z M 5.515625 -7.4375 "/></g></g></g><g fill="#d9d9d9" fill-opacity="1"><g transform="translate(7.655254, 11.561627)"><g><path d="M 5.875 -2.703125 C 5.875 -2.171875 5.753906 -1.691406 5.515625 -1.265625 C 5.285156 -0.835938 4.96875 -0.5 4.5625 -0.25 C 4.164062 -0.0078125 3.707031 0.109375 3.1875 0.109375 C 2.6875 0.109375 2.234375 -0.0078125 1.828125 -0.25 C 1.429688 -0.5 1.113281 -0.835938 0.875 -1.265625 C 0.632812 -1.691406 0.515625 -2.171875 0.515625 -2.703125 C 0.515625 -3.242188 0.632812 -3.726562 0.875 -4.15625 C 1.113281 -4.582031 1.429688 -4.914062 1.828125 -5.15625 C 2.234375 -5.40625 2.6875 -5.53125 3.1875 -5.53125 C 3.707031 -5.53125 4.164062 -5.40625 4.5625 -5.15625 C 4.96875 -4.914062 5.285156 -4.582031 5.515625 -4.15625 C 5.753906 -3.726562 5.875 -3.242188 5.875 -2.703125 Z M 5.234375 -2.703125 C 5.234375 -3.140625 5.144531 -3.523438 4.96875 -3.859375 C 4.789062 -4.191406 4.546875 -4.453125 4.234375 -4.640625 C 3.929688 -4.835938 3.582031 -4.9375 3.1875 -4.9375 C 2.8125 -4.9375 2.46875 -4.835938 2.15625 -4.640625 C 1.84375 -4.453125 1.597656 -4.191406 1.421875 -3.859375 C 1.242188 -3.523438 1.15625 -3.140625 1.15625 -2.703125 C 1.15625 -2.273438 1.242188 -1.894531 1.421875 -1.5625 C 1.597656 -1.226562 1.84375 -0.960938 2.15625 -0.765625 C 2.46875 -0.578125 2.8125 -0.484375 3.1875 -0.484375 C 3.582031 -0.484375 3.929688 -0.578125 4.234375 -0.765625 C 4.546875 -0.960938 4.789062 -1.226562 4.96875 -1.5625 C 5.144531 -1.894531 5.234375 -2.273438 5.234375 -2.703125 Z M 5.234375 -2.703125 "/></g></g></g><g fill="#d9d9d9" fill-opacity="1"><g transform="translate(14.046776, 11.561627)"><g><path d="M 4.875 -5.375 C 4.96875 -5.375 5.039062 -5.34375 5.09375 -5.28125 C 5.15625 -5.21875 5.1875 -5.144531 5.1875 -5.0625 L 5.1875 -2.078125 C 5.1875 -1.378906 4.988281 -0.84375 4.59375 -0.46875 C 4.207031 -0.101562 3.675781 0.078125 3 0.078125 C 2.34375 0.078125 1.816406 -0.101562 1.421875 -0.46875 C 1.023438 -0.84375 0.828125 -1.378906 0.828125 -2.078125 L 0.828125 -5.0625 C 0.828125 -5.144531 0.859375 -5.21875 0.921875 -5.28125 C 0.984375 -5.34375 1.0625 -5.375 1.15625 -5.375 C 1.25 -5.375 1.320312 -5.34375 1.375 -5.28125 C 1.4375 -5.21875 1.46875 -5.144531 1.46875 -5.0625 L 1.46875 -2.078125 C 1.46875 -1.566406 1.601562 -1.175781 1.875 -0.90625 C 2.144531 -0.644531 2.519531 -0.515625 3 -0.515625 C 3.488281 -0.515625 3.867188 -0.644531 4.140625 -0.90625 C 4.421875 -1.175781 4.5625 -1.566406 4.5625 -2.078125 L 4.5625 -5.0625 C 4.5625 -5.144531 4.585938 -5.21875 4.640625 -5.28125 C 4.703125 -5.34375 4.78125 -5.375 4.875 -5.375 Z M 4.875 -5.375 "/></g></g></g><g fill="#d9d9d9" fill-opacity="1"><g transform="translate(19.750475, 11.561627)"><g><path d="M 3.1875 0 C 3.09375 0 3.015625 -0.03125 2.953125 -0.09375 C 2.890625 -0.15625 2.859375 -0.226562 2.859375 -0.3125 L 2.859375 -7.0625 L 3.515625 -7.0625 L 3.515625 -0.3125 C 3.515625 -0.226562 3.484375 -0.15625 3.421875 -0.09375 C 3.359375 -0.03125 3.28125 0 3.1875 0 Z M 0.671875 -6.796875 C 0.585938 -6.796875 0.515625 -6.820312 0.453125 -6.875 C 0.390625 -6.9375 0.359375 -7.015625 0.359375 -7.109375 C 0.359375 -7.191406 0.390625 -7.257812 0.453125 -7.3125 C 0.515625 -7.375 0.585938 -7.40625 0.671875 -7.40625 L 5.71875 -7.40625 C 5.800781 -7.40625 5.875 -7.375 5.9375 -7.3125 C 6 -7.257812 6.03125 -7.1875 6.03125 -7.09375 C 6.03125 -7 6 -6.925781 5.9375 -6.875 C 5.875 -6.820312 5.800781 -6.796875 5.71875 -6.796875 Z M 0.671875 -6.796875 "/></g></g></g><g fill="#d9d9d9" fill-opacity="1"><g transform="translate(24.872164, 11.561627)"><g><path d="M 4.875 -5.375 C 4.96875 -5.375 5.039062 -5.34375 5.09375 -5.28125 C 5.15625 -5.21875 5.1875 -5.144531 5.1875 -5.0625 L 5.1875 -2.078125 C 5.1875 -1.378906 4.988281 -0.84375 4.59375 -0.46875 C 4.207031 -0.101562 3.675781 0.078125 3 0.078125 C 2.34375 0.078125 1.816406 -0.101562 1.421875 -0.46875 C 1.023438 -0.84375 0.828125 -1.378906 0.828125 -2.078125 L 0.828125 -5.0625 C 0.828125 -5.144531 0.859375 -5.21875 0.921875 -5.28125 C 0.984375 -5.34375 1.0625 -5.375 1.15625 -5.375 C 1.25 -5.375 1.320312 -5.34375 1.375 -5.28125 C 1.4375 -5.21875 1.46875 -5.144531 1.46875 -5.0625 L 1.46875 -2.078125 C 1.46875 -1.566406 1.601562 -1.175781 1.875 -0.90625 C 2.144531 -0.644531 2.519531 -0.515625 3 -0.515625 C 3.488281 -0.515625 3.867188 -0.644531 4.140625 -0.90625 C 4.421875 -1.175781 4.5625 -1.566406 4.5625 -2.078125 L 4.5625 -5.0625 C 4.5625 -5.144531 4.585938 -5.21875 4.640625 -5.28125 C 4.703125 -5.34375 4.78125 -5.375 4.875 -5.375 Z M 4.875 -5.375 "/></g></g></g><g fill="#d9d9d9" fill-opacity="1"><g transform="translate(30.89332, 11.561627)"><g><path d="M 3.40625 -5.53125 C 3.882812 -5.53125 4.304688 -5.410156 4.671875 -5.171875 C 5.046875 -4.929688 5.34375 -4.597656 5.5625 -4.171875 C 5.78125 -3.753906 5.890625 -3.273438 5.890625 -2.734375 C 5.890625 -2.191406 5.78125 -1.707031 5.5625 -1.28125 C 5.34375 -0.851562 5.046875 -0.515625 4.671875 -0.265625 C 4.296875 -0.015625 3.878906 0.109375 3.421875 0.109375 C 3.171875 0.109375 2.929688 0.0703125 2.703125 0 C 2.484375 -0.0820312 2.28125 -0.1875 2.09375 -0.3125 C 1.914062 -0.445312 1.753906 -0.601562 1.609375 -0.78125 C 1.472656 -0.957031 1.363281 -1.148438 1.28125 -1.359375 L 1.46875 -1.484375 L 1.46875 -0.296875 C 1.46875 -0.203125 1.4375 -0.125 1.375 -0.0625 C 1.320312 -0.0078125 1.25 0.015625 1.15625 0.015625 C 1.0625 0.015625 0.984375 -0.0078125 0.921875 -0.0625 C 0.859375 -0.125 0.828125 -0.203125 0.828125 -0.296875 L 0.828125 -7.5 C 0.828125 -7.59375 0.851562 -7.664062 0.90625 -7.71875 C 0.96875 -7.78125 1.050781 -7.8125 1.15625 -7.8125 C 1.25 -7.8125 1.320312 -7.78125 1.375 -7.71875 C 1.4375 -7.664062 1.46875 -7.59375 1.46875 -7.5 L 1.46875 -3.953125 L 1.328125 -4.046875 C 1.390625 -4.265625 1.488281 -4.460938 1.625 -4.640625 C 1.769531 -4.816406 1.929688 -4.972656 2.109375 -5.109375 C 2.296875 -5.242188 2.5 -5.347656 2.71875 -5.421875 C 2.9375 -5.492188 3.164062 -5.53125 3.40625 -5.53125 Z M 3.359375 -4.9375 C 2.972656 -4.9375 2.632812 -4.84375 2.34375 -4.65625 C 2.0625 -4.46875 1.835938 -4.207031 1.671875 -3.875 C 1.503906 -3.539062 1.421875 -3.160156 1.421875 -2.734375 C 1.421875 -2.304688 1.503906 -1.921875 1.671875 -1.578125 C 1.835938 -1.234375 2.0625 -0.960938 2.34375 -0.765625 C 2.632812 -0.578125 2.972656 -0.484375 3.359375 -0.484375 C 3.722656 -0.484375 4.046875 -0.582031 4.328125 -0.78125 C 4.617188 -0.976562 4.847656 -1.25 5.015625 -1.59375 C 5.191406 -1.9375 5.28125 -2.316406 5.28125 -2.734375 C 5.28125 -3.160156 5.191406 -3.539062 5.015625 -3.875 C 4.847656 -4.207031 4.617188 -4.46875 4.328125 -4.65625 C 4.046875 -4.84375 3.722656 -4.9375 3.359375 -4.9375 Z M 3.359375 -4.9375 "/></g></g></g><g fill="#d9d9d9" fill-opacity="1"><g transform="translate(37.306681, 11.561627)"><g><path d="M 3.359375 0.109375 C 2.753906 0.109375 2.226562 -0.015625 1.78125 -0.265625 C 1.34375 -0.515625 1.003906 -0.851562 0.765625 -1.28125 C 0.535156 -1.71875 0.421875 -2.207031 0.421875 -2.75 C 0.421875 -3.382812 0.550781 -3.925781 0.8125 -4.375 C 1.070312 -4.820312 1.40625 -5.164062 1.8125 -5.40625 C 2.226562 -5.644531 2.671875 -5.765625 3.140625 -5.765625 C 3.503906 -5.765625 3.84375 -5.691406 4.15625 -5.546875 C 4.476562 -5.398438 4.765625 -5.195312 5.015625 -4.9375 C 5.265625 -4.675781 5.457031 -4.375 5.59375 -4.03125 C 5.738281 -3.695312 5.8125 -3.34375 5.8125 -2.96875 C 5.8125 -2.789062 5.742188 -2.648438 5.609375 -2.546875 C 5.484375 -2.441406 5.335938 -2.390625 5.171875 -2.390625 L 1.125 -2.390625 L 0.8125 -3.453125 L 4.703125 -3.453125 L 4.46875 -3.234375 L 4.46875 -3.515625 C 4.445312 -3.722656 4.367188 -3.90625 4.234375 -4.0625 C 4.109375 -4.226562 3.945312 -4.359375 3.75 -4.453125 C 3.5625 -4.546875 3.359375 -4.59375 3.140625 -4.59375 C 2.929688 -4.59375 2.734375 -4.566406 2.546875 -4.515625 C 2.367188 -4.460938 2.210938 -4.367188 2.078125 -4.234375 C 1.941406 -4.097656 1.832031 -3.914062 1.75 -3.6875 C 1.675781 -3.46875 1.640625 -3.179688 1.640625 -2.828125 C 1.640625 -2.453125 1.71875 -2.128906 1.875 -1.859375 C 2.03125 -1.597656 2.234375 -1.398438 2.484375 -1.265625 C 2.734375 -1.128906 3.003906 -1.0625 3.296875 -1.0625 C 3.554688 -1.0625 3.757812 -1.082031 3.90625 -1.125 C 4.0625 -1.164062 4.1875 -1.210938 4.28125 -1.265625 C 4.382812 -1.328125 4.472656 -1.378906 4.546875 -1.421875 C 4.671875 -1.484375 4.789062 -1.515625 4.90625 -1.515625 C 5.0625 -1.515625 5.191406 -1.460938 5.296875 -1.359375 C 5.398438 -1.253906 5.453125 -1.132812 5.453125 -1 C 5.453125 -0.800781 5.351562 -0.625 5.15625 -0.46875 C 4.96875 -0.320312 4.707031 -0.1875 4.375 -0.0625 C 4.039062 0.0507812 3.703125 0.109375 3.359375 0.109375 Z M 3.359375 0.109375 "/></g></g></g></g></g></g></svg>