<svg xmlns="http://www.w3.org/2000/svg" xmlns:xlink="http://www.w3.org/1999/xlink" width="40" zoomAndPan="magnify" viewBox="0 0 30 30.000001" height="40" preserveAspectRatio="xMidYMid meet" version="1.0"><defs><clipPath id="4250aff321"><path d="M 0.484375 4.679688 L 29.515625 4.679688 L 29.515625 24.277344 L 0.484375 24.277344 Z M 0.484375 4.679688 " clip-rule="nonzero"/></clipPath></defs><g clip-path="url(#4250aff321)"><path fill="#5e17eb" d="M 10.660156 10.367188 C 10.660156 10.175781 10.6875 9.816406 11.144531 9.550781 C 11.550781 9.3125 12.367188 9.125 12.871094 9.40625 L 20.207031 13.398438 C 20.585938 13.613281 20.988281 14.066406 20.984375 14.5625 C 20.980469 14.882812 20.808594 15.167969 20.519531 15.324219 L 20.5 15.335938 L 12.855469 19.121094 C 12.683594 19.210938 12.484375 19.246094 12.265625 19.246094 C 11.832031 19.246094 11.390625 19.109375 11.128906 18.949219 C 10.683594 18.6875 10.660156 18.332031 10.660156 18.144531 Z M 6.492188 24.339844 L 23.570312 24.339844 C 26.894531 24.339844 29.730469 21.453125 29.730469 18.128906 L 29.730469 10.183594 C 29.730469 6.859375 26.894531 4.6875 23.570312 4.6875 L 6.492188 4.6875 C 3.167969 4.6875 0.484375 6.859375 0.484375 10.183594 L 0.484375 18.128906 C 0.484375 21.453125 3.167969 24.339844 6.492188 24.339844 " fill-opacity="1" fill-rule="nonzero"/></g></svg>